<svg width="48" height="40" viewBox="0 0 48 40" fill="none" xmlns="http://www.w3.org/2000/svg">
<path d="M7.62953 10.3952C7.13813 9.99221 6.50753 9.7994 5.87478 9.85872C5.24202 9.91804 4.65824 10.2247 4.25033 10.712L1.18553 14.4056C0.782353 14.8963 0.589203 15.5264 0.648079 16.1587C0.706954 16.7911 1.01309 17.3746 1.49993 17.7824L20.4311 33.4832L11.2943 13.4336L7.62953 10.3952ZM16.8311 2.43924L12.4631 4.42884C11.8866 4.69539 11.4385 5.17857 11.2161 5.77349C10.9937 6.36842 11.0149 7.02706 11.2751 7.60644L21.4751 29.9864L21.9863 7.95684L20.0135 3.62724C19.4615 2.42724 18.0311 1.89204 16.8311 2.43924ZM34.1063 2.92884C34.1192 2.29322 33.8802 1.6783 33.4413 1.21831C33.0025 0.758327 32.3995 0.490625 31.7639 0.473642L26.9639 0.363242C26.3287 0.35098 25.7144 0.590333 25.2549 1.02912C24.7955 1.46791 24.5281 2.07054 24.5111 2.70564L23.9375 27.2888L33.9935 7.68804L34.1063 2.92884ZM46.0583 5.20884L41.7887 3.01764C41.2214 2.72987 40.5634 2.67787 39.9579 2.87295C39.3524 3.06804 38.8485 3.49441 38.5559 4.05924L23.2175 33.9536C22.9291 34.5208 22.8768 35.1791 23.0719 35.7848C23.267 36.3904 23.6938 36.8943 24.2591 37.1864L28.5287 39.3776C29.0953 39.6661 29.753 39.7188 30.3582 39.5241C30.9634 39.3294 31.467 38.9031 31.7591 38.3384L47.0975 8.44404C47.3862 7.87677 47.439 7.21839 47.2443 6.61238C47.0497 6.00637 46.6234 5.50187 46.0583 5.20884ZM30.7175 35.1032C30.5779 35.3904 30.3824 35.6468 30.1424 35.8575C29.9024 36.0681 29.6228 36.2288 29.32 36.33C29.0172 36.4312 28.6972 36.471 28.3788 36.447C28.0604 36.423 27.7499 36.3357 27.4657 36.1903C27.1814 36.0448 26.9291 35.844 26.7234 35.5998C26.5177 35.3556 26.3628 35.0728 26.2678 34.7679C26.1728 34.4631 26.1396 34.1423 26.1701 33.8245C26.2006 33.5066 26.2943 33.198 26.4455 32.9168C26.743 32.3638 27.2455 31.9494 27.845 31.7625C28.4446 31.5756 29.0935 31.6312 29.6526 31.9174C30.2116 32.2035 30.6362 32.6973 30.8353 33.2929C31.0344 33.8885 30.9921 34.5384 30.7175 35.1032Z" fill="#E2E3E7"/>
</svg>
