<svg width="135" height="200" viewBox="0 0 135 200" fill="none" xmlns="http://www.w3.org/2000/svg">
<g id="Group 624501">
<circle id="Ellipse 2" cx="2.43361" cy="2.59752" r="2.21373" transform="rotate(90 2.43361 2.59752)" fill="#F6F6F6"/>
<circle id="Ellipse 3" cx="34.9014" cy="2.50133" r="2.21373" transform="rotate(90 34.9014 2.50133)" fill="#F6F6F6"/>
<circle id="Ellipse 4" cx="67.3693" cy="2.40611" r="2.21373" transform="rotate(90 67.3693 2.40611)" fill="#F6F6F6"/>
<circle id="Ellipse 5" cx="99.8373" cy="2.30992" r="2.21373" transform="rotate(90 99.8373 2.30992)" fill="#F6F6F6"/>
<circle id="Ellipse 6" cx="132.305" cy="2.21373" r="2.21373" transform="rotate(90 132.305 2.21373)" fill="#F6F6F6"/>
<circle id="Ellipse 7" cx="2.52931" cy="35.0648" r="2.21373" transform="rotate(90 2.52931 35.0648)" fill="#F6F6F6"/>
<circle id="Ellipse 8" cx="34.9973" cy="34.9696" r="2.21373" transform="rotate(90 34.9973 34.9696)" fill="#F6F6F6"/>
<circle id="Ellipse 9" cx="67.4651" cy="34.8734" r="2.21373" transform="rotate(90 67.4651 34.8734)" fill="#F6F6F6"/>
<circle id="Ellipse 10" cx="99.933" cy="34.7772" r="2.21373" transform="rotate(90 99.933 34.7772)" fill="#F6F6F6"/>
<circle id="Ellipse 11" cx="132.401" cy="34.6815" r="2.21373" transform="rotate(90 132.401 34.6815)" fill="#F6F6F6"/>
<circle id="Ellipse 12" cx="2.62514" cy="67.5331" r="2.21373" transform="rotate(90 2.62514 67.5331)" fill="#F6F6F6"/>
<circle id="Ellipse 13" cx="35.0932" cy="67.4374" r="2.21373" transform="rotate(90 35.0932 67.4374)" fill="#F6F6F6"/>
<circle id="Ellipse 14" cx="67.5611" cy="67.3412" r="2.21373" transform="rotate(90 67.5611 67.3412)" fill="#F6F6F6"/>
<circle id="Ellipse 15" cx="100.029" cy="67.246" r="2.21373" transform="rotate(90 100.029 67.246)" fill="#F6F6F6"/>
<circle id="Ellipse 16" cx="132.497" cy="67.1493" r="2.21373" transform="rotate(90 132.497 67.1493)" fill="#F6F6F6"/>
<circle id="Ellipse 17" cx="2.72108" cy="100.001" r="2.21373" transform="rotate(90 2.72108 100.001)" fill="#F6F6F6"/>
<circle id="Ellipse 18" cx="35.1891" cy="99.9051" r="2.21373" transform="rotate(90 35.1891 99.9051)" fill="#F6F6F6"/>
<circle id="Ellipse 19" cx="67.6569" cy="99.8094" r="2.21373" transform="rotate(90 67.6569 99.8094)" fill="#F6F6F6"/>
<circle id="Ellipse 20" cx="100.125" cy="99.7137" r="2.21373" transform="rotate(90 100.125 99.7137)" fill="#F6F6F6"/>
<circle id="Ellipse 21" cx="132.593" cy="99.6175" r="2.21373" transform="rotate(90 132.593 99.6175)" fill="#F6F6F6"/>
<circle id="Ellipse 22" cx="2.81703" cy="132.469" r="2.21373" transform="rotate(90 2.81703 132.469)" fill="#F6F6F6"/>
<circle id="Ellipse 23" cx="35.2849" cy="132.373" r="2.21373" transform="rotate(90 35.2849 132.373)" fill="#F6F6F6"/>
<circle id="Ellipse 24" cx="67.7528" cy="132.277" r="2.21373" transform="rotate(90 67.7528 132.277)" fill="#F6F6F6"/>
<circle id="Ellipse 25" cx="100.221" cy="132.182" r="2.21373" transform="rotate(90 100.221 132.182)" fill="#F6F6F6"/>
<circle id="Ellipse 26" cx="132.689" cy="132.085" r="2.21373" transform="rotate(90 132.689 132.085)" fill="#F6F6F6"/>
<circle id="Ellipse 27" cx="2.91298" cy="164.937" r="2.21373" transform="rotate(90 2.91298 164.937)" fill="#F6F6F6"/>
<circle id="Ellipse 28" cx="35.3809" cy="164.841" r="2.21373" transform="rotate(90 35.3809 164.841)" fill="#F6F6F6"/>
<circle id="Ellipse 29" cx="67.8488" cy="164.745" r="2.21373" transform="rotate(90 67.8488 164.745)" fill="#F6F6F6"/>
<circle id="Ellipse 30" cx="100.317" cy="164.649" r="2.21373" transform="rotate(90 100.317 164.649)" fill="#F6F6F6"/>
<circle id="Ellipse 31" cx="132.785" cy="164.553" r="2.21373" transform="rotate(90 132.785 164.553)" fill="#F6F6F6"/>
<circle id="Ellipse 32" cx="3.0088" cy="197.405" r="2.21373" transform="rotate(90 3.0088 197.405)" fill="#F6F6F6"/>
<circle id="Ellipse 33" cx="35.4767" cy="197.309" r="2.21373" transform="rotate(90 35.4767 197.309)" fill="#F6F6F6"/>
</g>
</svg>
