<svg width="19" height="18" viewBox="0 0 19 18" fill="none" xmlns="http://www.w3.org/2000/svg">
<g id="Heart">
<g id="Iconly/Bold/Heart">
<g id="Heart_2">
<path id="Vector" d="M6.30034 1.87512C6.77284 1.88949 7.23034 1.97199 7.67359 2.12274H7.71784C7.74784 2.13699 7.77034 2.15274 7.78534 2.16699C7.95109 2.22024 8.10784 2.28024 8.25784 2.36274L8.54284 2.49024C8.65534 2.55024 8.79034 2.66199 8.86535 2.70774C8.94034 2.75199 9.02284 2.79774 9.09034 2.84949C9.92359 2.21274 10.9353 1.86774 11.9778 1.87512C12.4511 1.87512 12.9236 1.94199 13.3728 2.09274C16.1411 2.99274 17.1386 6.03024 16.3053 8.68524C15.8328 10.042 15.0603 11.2802 14.0486 12.292C12.6003 13.6945 11.0111 14.9395 9.30034 16.012L9.11284 16.1252L8.91784 16.0045C7.20109 14.9395 5.60284 13.6945 4.14109 12.2845C3.13609 11.2727 2.36284 10.042 1.88284 8.68524C1.03534 6.03024 2.03284 2.99274 4.83109 2.07699C5.04859 2.00199 5.27284 1.94949 5.49784 1.92024H5.58784C5.79859 1.88949 6.00784 1.87512 6.21784 1.87512H6.30034ZM12.9828 4.24524C12.6753 4.13949 12.3378 4.30524 12.2253 4.62024C12.1203 4.93524 12.2853 5.28024 12.6003 5.39199C13.0811 5.57199 13.4028 6.04524 13.4028 6.56949V6.59274C13.3886 6.76449 13.4403 6.93024 13.5453 7.05774C13.6503 7.18524 13.8078 7.25949 13.9728 7.27524C14.2803 7.26699 14.5428 7.02024 14.5653 6.70449V6.61524C14.5878 5.56449 13.9511 4.61274 12.9828 4.24524Z" fill="#FF3939"/>
</g>
</g>
</g>
</svg>
