<svg width="233" height="136" viewBox="0 0 233 136" fill="none" xmlns="http://www.w3.org/2000/svg">
<g id="Group 624502">
<circle id="Ellipse 12" cx="229.884" cy="3.00746" r="2.21373" transform="rotate(-180 229.884 3.00746)" fill="#F6F6F6"/>
<circle id="Ellipse 13" cx="229.98" cy="35.4757" r="2.21373" transform="rotate(-180 229.98 35.4757)" fill="#F6F6F6"/>
<circle id="Ellipse 14" cx="230.076" cy="67.943" r="2.21373" transform="rotate(-180 230.076 67.943)" fill="#F6F6F6"/>
<circle id="Ellipse 15" cx="230.172" cy="100.411" r="2.21373" transform="rotate(-180 230.172 100.411)" fill="#F6F6F6"/>
<circle id="Ellipse 16" cx="230.268" cy="132.879" r="2.21373" transform="rotate(-180 230.268 132.879)" fill="#F6F6F6"/>
<circle id="Ellipse 17" cx="197.416" cy="3.10316" r="2.21373" transform="rotate(-180 197.416 3.10316)" fill="#F6F6F6"/>
<circle id="Ellipse 18" cx="197.512" cy="35.5714" r="2.21373" transform="rotate(-180 197.512 35.5714)" fill="#F6F6F6"/>
<circle id="Ellipse 19" cx="197.608" cy="68.0392" r="2.21373" transform="rotate(-180 197.608 68.0392)" fill="#F6F6F6"/>
<circle id="Ellipse 20" cx="197.704" cy="100.507" r="2.21373" transform="rotate(-180 197.704 100.507)" fill="#F6F6F6"/>
<circle id="Ellipse 21" cx="197.8" cy="132.975" r="2.21373" transform="rotate(-180 197.8 132.975)" fill="#F6F6F6"/>
<circle id="Ellipse 22" cx="164.949" cy="3.19936" r="2.21373" transform="rotate(-180 164.949 3.19936)" fill="#F6F6F6"/>
<circle id="Ellipse 23" cx="165.044" cy="35.6676" r="2.21373" transform="rotate(-180 165.044 35.6676)" fill="#F6F6F6"/>
<circle id="Ellipse 24" cx="165.14" cy="68.1354" r="2.21373" transform="rotate(-180 165.14 68.1354)" fill="#F6F6F6"/>
<circle id="Ellipse 25" cx="165.236" cy="100.603" r="2.21373" transform="rotate(-180 165.236 100.603)" fill="#F6F6F6"/>
<circle id="Ellipse 26" cx="165.332" cy="133.07" r="2.21373" transform="rotate(-180 165.332 133.07)" fill="#F6F6F6"/>
<circle id="Ellipse 27" cx="132.481" cy="3.29506" r="2.21373" transform="rotate(-180 132.481 3.29506)" fill="#F6F6F6"/>
<circle id="Ellipse 28" cx="132.576" cy="35.7633" r="2.21373" transform="rotate(-180 132.576 35.7633)" fill="#F6F6F6"/>
<circle id="Ellipse 29" cx="132.672" cy="68.2311" r="2.21373" transform="rotate(-180 132.672 68.2311)" fill="#F6F6F6"/>
<circle id="Ellipse 30" cx="132.768" cy="100.699" r="2.21373" transform="rotate(-180 132.768 100.699)" fill="#F6F6F6"/>
<circle id="Ellipse 31" cx="132.864" cy="133.167" r="2.21373" transform="rotate(-180 132.864 133.167)" fill="#F6F6F6"/>
<circle id="Ellipse 32" cx="100.013" cy="3.39125" r="2.21373" transform="rotate(-180 100.013 3.39125)" fill="#F6F6F6"/>
<circle id="Ellipse 33" cx="100.108" cy="35.859" r="2.21373" transform="rotate(-180 100.108 35.859)" fill="#F6F6F6"/>
<circle id="Ellipse 34" cx="100.204" cy="68.3268" r="2.21373" transform="rotate(-180 100.204 68.3268)" fill="#F6F6F6"/>
<circle id="Ellipse 35" cx="100.3" cy="100.795" r="2.21373" transform="rotate(-180 100.3 100.795)" fill="#F6F6F6"/>
<circle id="Ellipse 36" cx="100.396" cy="133.263" r="2.21373" transform="rotate(-180 100.396 133.263)" fill="#F6F6F6"/>
<circle id="Ellipse 37" cx="67.5448" cy="3.48695" r="2.21373" transform="rotate(-180 67.5448 3.48695)" fill="#F6F6F6"/>
<circle id="Ellipse 38" cx="67.6406" cy="35.9547" r="2.21373" transform="rotate(-180 67.6406 35.9547)" fill="#F6F6F6"/>
<circle id="Ellipse 39" cx="67.7365" cy="68.423" r="2.21373" transform="rotate(-180 67.7365 68.423)" fill="#F6F6F6"/>
<circle id="Ellipse 40" cx="67.8325" cy="100.89" r="2.21373" transform="rotate(-180 67.8325 100.89)" fill="#F6F6F6"/>
<circle id="Ellipse 41" cx="67.9284" cy="133.359" r="2.21373" transform="rotate(-180 67.9284 133.359)" fill="#F6F6F6"/>
<circle id="Ellipse 42" cx="35.0767" cy="3.58314" r="2.21373" transform="rotate(-180 35.0767 3.58314)" fill="#F6F6F6"/>
<circle id="Ellipse 43" cx="35.1727" cy="36.0509" r="2.21373" transform="rotate(-180 35.1727 36.0509)" fill="#F6F6F6"/>
<circle id="Ellipse 44" cx="35.2685" cy="68.5187" r="2.21373" transform="rotate(-180 35.2685 68.5187)" fill="#F6F6F6"/>
<circle id="Ellipse 45" cx="35.3644" cy="100.987" r="2.21373" transform="rotate(-180 35.3644 100.987)" fill="#F6F6F6"/>
<circle id="Ellipse 46" cx="35.4603" cy="133.455" r="2.21373" transform="rotate(-180 35.4603 133.455)" fill="#F6F6F6"/>
<circle id="Ellipse 47" cx="2.6089" cy="3.67885" r="2.21373" transform="rotate(-180 2.6089 3.67885)" fill="#F6F6F6"/>
<circle id="Ellipse 48" cx="2.70479" cy="36.1466" r="2.21373" transform="rotate(-180 2.70479 36.1466)" fill="#F6F6F6"/>
<circle id="Ellipse 49" cx="2.80074" cy="68.6144" r="2.21373" transform="rotate(-180 2.80074 68.6144)" fill="#F6F6F6"/>
<circle id="Ellipse 50" cx="2.89662" cy="101.083" r="2.21373" transform="rotate(-180 2.89662 101.083)" fill="#F6F6F6"/>
<circle id="Ellipse 1" cx="2.99251" cy="133.55" r="2.21373" transform="rotate(-180 2.99251 133.55)" fill="#F6F6F6"/>
</g>
</svg>
