<svg width="1073" height="509" viewBox="0 0 1073 509" fill="none" xmlns="http://www.w3.org/2000/svg">
<circle cx="2.5" cy="2.5" r="2.5" transform="matrix(-1 0 0 1 398.012 231)" fill="#5151FF"/>
<circle cx="4" cy="4" r="4" transform="matrix(-1 0 0 1 543.512 255)" fill="#FEA82F"/>
<circle cx="4" cy="4" r="4" transform="matrix(-1 0 0 1 8.51196 344)" fill="#FA6700"/>
<circle cx="4" cy="4" r="4" transform="matrix(-1 0 0 1 656.512 374)" fill="#6FA3F4"/>
<circle cx="2.5" cy="2.5" r="2.5" transform="matrix(-1 0 0 1 1052.51 504)" fill="#FFC93C"/>
<circle cx="2.5" cy="2.5" r="2.5" transform="matrix(-1 0 0 1 527.512 10)" fill="#FFC93C"/>
<circle cx="2.5" cy="2.5" r="2.5" transform="matrix(-1 0 0 1 771.512 58)" fill="#FA6700"/>
<circle cx="2.5" cy="2.5" r="2.5" transform="matrix(-1 0 0 1 384.512 424)" fill="#5151FF"/>
<circle cx="2.5" cy="2.5" r="2.5" transform="matrix(-1 0 0 1 1072.51 0)" fill="#5151FF"/>
<circle cx="2.5" cy="2.5" r="2.5" transform="matrix(-1 0 0 1 959.512 340)" fill="#77ACF1"/>
</svg>
