<svg width="1017" height="509" viewBox="0 0 1017 509" fill="none" xmlns="http://www.w3.org/2000/svg">
<circle cx="2.5" cy="2.5" r="2.5" transform="matrix(-1 0 0 1 324 77)" fill="#F6F6F6"/>
<circle cx="6" cy="6" r="6" transform="matrix(-1 0 0 1 316 60)" fill="#E2E3E7"/>
<circle cx="4" cy="4" r="4" transform="matrix(-1 0 0 1 488 255)" fill="#E2E3E7"/>
<circle cx="2.5" cy="2.5" r="2.5" transform="matrix(-1 0 0 1 997 504)" fill="#F6F6F6"/>
<circle cx="2.5" cy="2.5" r="2.5" transform="matrix(-1 0 0 1 472 30)" fill="#F6F6F6"/>
<circle cx="4" cy="4" r="4" transform="matrix(-1 0 0 1 8 89)" fill="#F6F6F6"/>
<circle cx="2.5" cy="2.5" r="2.5" transform="matrix(-1 0 0 1 814 27)" fill="#F6F6F6"/>
<circle cx="2.5" cy="2.5" r="2.5" transform="matrix(-1 0 0 1 329 403)" fill="#5151FF"/>
<circle cx="2.5" cy="2.5" r="2.5" transform="matrix(-1 0 0 1 1017 0)" fill="#F6F6F6"/>
<circle cx="2.5" cy="2.5" r="2.5" transform="matrix(-1 0 0 1 904 340)" fill="#77ACF1"/>
</svg>
