<svg width="19" height="18" viewBox="0 0 19 18" fill="none" xmlns="http://www.w3.org/2000/svg">
<g id="thumbs-up (1) 1" clip-path="url(#clip0_324_160)">
<path id="Vector" d="M12.3738 6.62449C12.2541 6.30499 15.5589 3.35389 13.632 0.96259C13.1811 0.40369 11.6511 3.64009 9.47846 5.10529C8.27966 5.91349 5.49056 7.63429 5.49056 8.58559V14.7434C5.49056 15.8873 9.91316 17.0987 13.2738 17.0987C14.5059 17.0987 16.2906 9.38029 16.2906 8.15449C16.2906 6.92329 12.4917 6.94489 12.3738 6.62449ZM4.59056 6.70999C3.99836 6.70999 1.89056 7.06999 1.89056 9.52069V13.8839C1.89056 16.3328 3.99836 16.6028 4.59056 16.6028C5.18186 16.6028 3.69056 16.088 3.69056 14.5688V8.83309C3.69056 7.24189 5.18186 6.70999 4.59056 6.70999Z" fill="#10792C"/>
</g>
<defs>
<clipPath id="clip0_324_160">
<rect width="18" height="18" fill="white" transform="translate(0.0905151)"/>
</clipPath>
</defs>
</svg>
