<svg width="20" height="20" viewBox="0 0 20 20" fill="none" xmlns="http://www.w3.org/2000/svg">
<g clip-path="url(#clip0_725_9088)">
<path d="M8.29389 16.9982C7.85889 16.9982 7.44689 16.7952 7.18289 16.4452L3.60989 11.7242C3.49943 11.5784 3.41878 11.4123 3.37256 11.2353C3.32634 11.0583 3.31546 10.8739 3.34053 10.6927C3.36561 10.5116 3.42615 10.3371 3.5187 10.1793C3.61124 10.0215 3.73398 9.88352 3.87989 9.77321C4.02575 9.66243 4.19204 9.58153 4.36922 9.53513C4.5464 9.48874 4.731 9.47777 4.91243 9.50286C5.09386 9.52794 5.26856 9.58858 5.42651 9.6813C5.58446 9.77403 5.72256 9.89701 5.83289 10.0432L8.18389 13.1472L14.0949 3.65521C14.2909 3.34181 14.6033 3.11895 14.9634 3.03553C15.3235 2.95211 15.702 3.01492 16.0159 3.21021C16.6689 3.61621 16.8699 4.47621 16.4619 5.13021L9.47789 16.3402C9.35867 16.5324 9.19434 16.6926 8.99916 16.807C8.80399 16.9213 8.58386 16.9862 8.35789 16.9962C8.33589 16.9982 8.31589 16.9982 8.29389 16.9982Z" fill="#5151FF"/>
</g>
<defs>
<clipPath id="clip0_725_9088">
<rect width="20" height="20" fill="white"/>
</clipPath>
</defs>
</svg>
