<svg width="19" height="18" viewBox="0 0 19 18" fill="none" xmlns="http://www.w3.org/2000/svg">
<g id="clap 1" clip-path="url(#clip0_324_167)">
<path id="Vector" d="M7.29117 4.53869C7.87069 4.81203 8.11784 5.50264 7.8445 6.08177L6.47949 8.97488L9.02603 6.42792C9.47325 5.98069 10.1955 5.97567 10.6498 6.4121C11.1179 6.86266 11.1066 7.6265 10.6473 8.08582L8.06292 10.6702L11.2481 9.03187C11.8172 8.73898 12.5166 8.96321 12.8091 9.53235C13.1024 10.1015 12.8777 10.8008 12.3086 11.0933L9.54402 12.5157H11.7511C12.3909 12.5157 12.9101 13.0345 12.9101 13.6748C12.9101 14.3147 12.3913 14.8343 11.7511 14.8343H10.7401C9.14918 14.8343 7.58114 15.21 6.16371 15.9314L4.8482 16.6012L3.71241 17.737L2.54459 16.5692L0.354636 14.3792C1.054 13.6794 1.49043 13.243 1.49043 13.243C1.31402 13.067 1.20668 12.8478 1.16759 12.6198L0.880503 10.9465L0.371265 7.97806C0.263089 7.34652 0.686617 6.74742 1.31774 6.63928C1.94929 6.5311 2.54796 6.95505 2.6561 7.58618L3.06466 9.96671C3.6492 9.2657 4.14342 8.49229 4.53366 7.66436L5.74806 5.09202C6.02144 4.51331 6.71205 4.26535 7.29117 4.53869Z" fill="#F1D0A5"/>
<g id="Group">
<path id="Vector_2" d="M1.11634 10.7134L2.82332 13.7887L1.29272 15.3193L0.354614 14.3816C1.05398 13.6818 1.49041 13.2454 1.49041 13.2454C1.31399 13.0694 1.20666 12.8502 1.16757 12.6222L0.880481 10.9489L1.11634 10.7134Z" fill="#F1B986"/>
<path id="Vector_3" d="M12.9101 13.6766C12.9101 13.2404 11.3408 13.26 10.3208 13.3189C9.87126 13.3448 9.5036 12.9659 9.54385 12.5173H11.7508C12.3911 12.5177 12.9101 13.0366 12.9101 13.6766Z" fill="#F1B986"/>
<path id="Vector_4" d="M12.8033 9.52331C12.5568 9.11911 10.1707 10.3875 8.94864 11.0732C8.59353 11.2724 8.14733 11.0703 8.06277 10.672L11.2481 9.03354C11.8137 8.7427 12.5073 8.96225 12.8033 9.52331Z" fill="#F1B986"/>
<path id="Vector_5" d="M6.47958 8.9767L9.0263 6.42998C9.47198 5.9843 10.1902 5.97713 10.6439 6.40906C10.3726 6.19443 8.39145 8.13242 7.39157 9.14211C7.1138 9.42265 6.64134 9.33677 6.47958 8.9767Z" fill="#F1B986"/>
<path id="Vector_6" d="M6.16387 15.9319L4.84829 16.6017L1.49034 13.2438C1.31403 13.0674 1.20667 12.8485 1.16775 12.62L1.16747 12.6197L0.371424 7.97833C0.265534 7.36176 0.667123 6.77637 1.27367 6.64844C0.570373 6.93781 2.04711 14.4807 6.16387 15.9319Z" fill="#F1B986"/>
<path id="Vector_7" d="M4.05023 10.5547C3.56392 10.1301 3.0647 9.96814 3.0647 9.96814C3.64921 9.26741 4.14326 8.49397 4.53426 7.66615L5.74824 5.09426C6.02162 4.5152 6.7123 4.26699 7.29139 4.54037C6.76556 4.37749 4.08859 10.467 4.05055 10.5538L4.05023 10.5547Z" fill="#F1B986"/>
</g>
<path id="Vector_8" d="M7.05402 5.55918C7.65709 5.34266 8.32018 5.65625 8.53639 6.25904L9.61691 9.27L9.61663 5.66834C9.61663 5.03585 10.1238 4.52162 10.7537 4.50899C11.4032 4.49662 11.9354 5.04471 11.9354 5.69425V9.34917L13.0292 5.93845C13.2245 5.32891 13.8776 4.99296 14.4869 5.18857C15.0967 5.38361 15.4324 6.03699 15.2367 6.64625L14.2877 9.6069L15.8483 8.04628C16.3008 7.59382 17.0347 7.59353 17.4875 8.04628C17.9399 8.49874 17.9405 9.23301 17.4878 9.68575L16.7729 10.4006C15.6479 11.5256 14.8048 12.9 14.3127 14.4124L13.8561 15.8162V17.7353H12.2046H9.10743C9.10715 16.7459 9.10715 15.8159 9.10715 15.8159C8.85796 15.8162 8.62705 15.7371 8.43819 15.6035L7.05202 14.6233L4.59298 12.8844C4.06992 12.5143 3.94579 11.7912 4.31556 11.2685C4.68565 10.7454 5.40871 10.6219 5.93148 10.9917L7.90368 12.3861C7.82131 11.4771 7.62391 10.5807 7.31443 9.71936L6.35424 7.04172C6.13824 6.43907 6.45123 5.77539 7.05402 5.55918Z" fill="#F1D0A5"/>
<path id="Vector_9" d="M7.05222 14.291L10.4338 15.2586V17.7363H9.10735C9.10707 16.747 9.10707 15.8169 9.10707 15.8169C8.85788 15.8172 8.62698 15.7381 8.43812 15.6045L7.05194 14.6243L7.05222 14.291Z" fill="#F1B986"/>
<path id="Vector_10" d="M17.4873 8.04743C17.1789 7.73894 16.0831 8.86246 15.4035 9.62535C15.104 9.96158 14.576 9.9536 14.2873 9.60798L15.8479 8.04743C16.3008 7.59487 17.0347 7.59487 17.4873 8.04743Z" fill="#F1B986"/>
<path id="Vector_11" d="M14.4752 5.18699C14.0151 5.07548 13.2248 7.65953 12.8455 9.00855C12.7352 9.40054 12.2768 9.57312 11.9354 9.35129L13.0291 5.94036C13.2235 5.33472 13.8692 4.99954 14.4752 5.18699Z" fill="#F1B986"/>
<path id="Vector_12" d="M9.61697 9.27118V5.66956C9.61697 5.03928 10.1197 4.52638 10.746 4.51099C10.4024 4.55099 10.3719 7.32229 10.3788 8.74327C10.3808 9.13801 9.98597 9.41138 9.61697 9.27118Z" fill="#F1B986"/>
<path id="Vector_13" d="M10.4338 15.4296V15.8175H9.10745C8.85794 15.8175 8.62736 15.7387 8.43818 15.6047H8.43779L4.59275 12.8854C4.08193 12.5243 3.95224 11.8266 4.29044 11.3071C4.09807 11.7687 6.78777 13.7798 9.77176 14.5686C10.1622 14.6719 10.4338 15.0256 10.4338 15.4296Z" fill="#F1B986"/>
<path id="Vector_14" d="M7.90358 12.3879L7.90344 12.388C7.82124 11.4792 7.6237 10.5829 7.31485 9.72111L6.35463 7.0441C6.13846 6.44135 6.45138 5.77746 7.05414 5.56128C6.70904 5.74314 7.83766 8.95351 8.52469 10.809C8.74969 11.4166 8.48155 12.0949 7.90358 12.3879Z" fill="#F1B986"/>
<path id="Vector_15" d="M13.8561 16.0818C13.7105 16.0818 13.5924 16.1998 13.5924 16.3455V17.7373C13.5924 17.8829 13.7105 18.001 13.8561 18.001C14.0017 18.001 14.1198 17.8829 14.1198 17.7373V16.3455C14.1198 16.1998 14.0017 16.0818 13.8561 16.0818Z" fill="black"/>
<path id="Vector_16" d="M17.6739 7.85977C17.1192 7.305 16.2165 7.305 15.6617 7.85977L14.8712 8.65036L15.4879 6.72686C15.604 6.36478 15.5721 5.97905 15.3979 5.64078C15.2238 5.30285 14.9288 5.05314 14.5676 4.93772C14.2059 4.82146 13.8205 4.85317 13.4824 5.02709C13.1441 5.20104 12.8941 5.49621 12.7783 5.85808L12.1989 7.66398V5.69428C12.1989 5.30598 12.0389 4.92626 11.7599 4.6525C11.4852 4.38292 11.1263 4.23829 10.7483 4.24553C9.97898 4.261 9.35302 4.89922 9.35302 5.66827L9.35306 5.9113C9.16125 5.98207 8.98652 6.09327 8.83999 6.2398L8.81759 6.2622L8.78458 6.17019C8.67693 5.87006 8.47661 5.62049 8.21231 5.45195C8.16548 4.95621 7.86106 4.51451 7.40393 4.29893C7.06038 4.13633 6.67408 4.11749 6.31619 4.24588C5.95855 4.37417 5.67217 4.63401 5.50967 4.97773L4.29559 7.55004C4.28226 7.57841 4.26855 7.60678 4.25456 7.63515C4.19005 7.76572 4.24363 7.92382 4.37416 7.98833C4.41171 8.0069 4.45154 8.01565 4.49074 8.01565C4.58791 8.01565 4.68139 7.96172 4.72734 7.8687C4.74285 7.8373 4.758 7.80587 4.77266 7.77479L5.98653 5.2029C6.08877 4.98659 6.26908 4.82297 6.49422 4.74222C6.71936 4.6615 6.96229 4.67331 7.17868 4.77572C7.38195 4.87156 7.53717 5.03841 7.62144 5.23788C7.40259 5.21043 7.17882 5.23426 6.96518 5.31101C6.22686 5.57577 5.84141 6.39206 6.10603 7.13077L6.51679 8.2763L6.24127 8.86046C6.17915 8.99219 6.23554 9.1493 6.36724 9.21142C6.40359 9.22858 6.44188 9.2367 6.47956 9.2367C6.57842 9.2367 6.67324 9.1808 6.7182 9.08545L6.76862 8.97858L7.06622 9.80851C7.30131 10.4622 7.47076 11.1395 7.57201 11.8285L6.08392 10.7763C5.62108 10.4489 5.02807 10.4378 4.56355 10.6985C4.20471 10.2707 3.77837 10.0056 3.48727 9.85977C3.74852 9.52529 3.99142 9.17531 4.21114 8.81531C4.28701 8.691 4.24774 8.52876 4.12343 8.45289C3.99911 8.37702 3.83687 8.41633 3.761 8.5406C3.59517 8.81236 3.41559 9.07828 3.22431 9.33552L2.91634 7.53942C2.85225 7.1649 2.64599 6.83778 2.33559 6.61829C2.0252 6.39885 1.6479 6.31342 1.2732 6.37761C0.500365 6.50991 -0.0208268 7.24682 0.111466 8.02047L0.90779 12.6623C0.942876 12.8659 1.02029 13.0566 1.13497 13.2245L0.168384 14.1911C0.0654115 14.294 0.0654115 14.461 0.168384 14.5639C0.219853 14.6154 0.287318 14.6412 0.354818 14.6412C0.422283 14.6412 0.489783 14.6154 0.541251 14.5639L1.6768 13.4284C1.77963 13.3255 1.77981 13.1589 1.67718 13.0559C1.54549 12.9237 1.45915 12.7566 1.42751 12.573L0.631251 7.93145C0.547966 7.4445 0.875868 6.98065 1.36233 6.89736C1.59826 6.8569 1.83581 6.91069 2.03121 7.04885C2.2265 7.18695 2.3563 7.39275 2.39662 7.62844L2.80479 10.0089C2.82142 10.1059 2.89088 10.1846 2.98387 10.2147L2.98359 10.2155C2.9909 10.2179 3.65975 10.4408 4.16006 11.038C4.13946 11.0632 4.11935 11.089 4.10022 11.116C3.6472 11.7564 3.79985 12.6462 4.44064 13.0997L7.33358 15.1452C6.89202 15.299 6.45988 15.483 6.04426 15.6946L4.72854 16.3643C4.70382 16.3769 4.68125 16.3932 4.66167 16.4129L3.52609 17.5488C3.42315 17.6518 3.42315 17.8188 3.52616 17.9217C3.57763 17.9732 3.64509 17.9989 3.71256 17.9989C3.78002 17.9989 3.84756 17.9731 3.89902 17.9216L5.00501 16.8153L6.28346 16.1646C6.79119 15.906 7.32493 15.6911 7.87027 15.5247L8.28593 15.8186C8.45464 15.938 8.64396 16.018 8.84358 16.0552V17.7352C8.84358 17.8808 8.96163 17.9989 9.10725 17.9989C9.25286 17.9989 9.37092 17.8808 9.37092 17.7352V15.8157C9.37092 15.7457 9.34308 15.6786 9.29354 15.6291C9.24411 15.5798 9.1771 15.552 9.10725 15.552C9.10668 15.552 9.10612 15.552 9.10556 15.552C8.92015 15.552 8.74212 15.4954 8.59049 15.3881L4.7452 12.6691C4.34182 12.3837 4.24563 11.8236 4.53068 11.4206C4.81615 11.0176 5.37629 10.9217 5.77943 11.2069L7.75134 12.6012C7.83529 12.6605 7.94614 12.6657 8.03523 12.6143C8.12435 12.563 8.17547 12.4645 8.16618 12.3621C8.08163 11.4282 7.87854 10.509 7.56255 9.63027L6.60247 6.95288C6.43593 6.48794 6.67848 5.97409 7.14331 5.80742C7.36856 5.72656 7.61156 5.73826 7.82767 5.84036C8.04381 5.94249 8.20735 6.12284 8.28821 6.34833L9.36891 9.35911C9.41223 9.47973 9.53591 9.55191 9.66229 9.52979C9.78858 9.50782 9.88076 9.3982 9.88076 9.27002L9.8804 5.6683C9.8804 5.18427 10.2745 4.78258 10.7587 4.77284C10.9939 4.76862 11.2178 4.85936 11.3906 5.02895C11.5692 5.20417 11.6716 5.44668 11.6716 5.69432V9.34916C11.6716 9.47903 11.7662 9.5896 11.8945 9.60967C12.0228 9.62985 12.1467 9.55339 12.1864 9.42971L13.2805 6.01902C13.3534 5.79124 13.5108 5.60555 13.7236 5.49607C13.9363 5.3867 14.1788 5.3667 14.4067 5.43993C14.6341 5.51256 14.8196 5.66964 14.9291 5.88223C15.0387 6.09517 15.0588 6.33792 14.9857 6.56581L14.0365 9.52631C13.9993 9.64222 14.0463 9.76851 14.1503 9.83189C14.2542 9.89528 14.388 9.87928 14.474 9.79326L16.0346 8.23267C16.3837 7.88353 16.9519 7.88346 17.301 8.23267C17.6504 8.58205 17.6505 9.15032 17.3014 9.49949L16.5867 10.2142C15.4372 11.3636 14.5641 12.7871 14.0617 14.3308L13.7685 15.2329C13.7235 15.3714 13.7993 15.5202 13.9378 15.5652C14.0763 15.6102 14.225 15.5344 14.27 15.3959L14.5632 14.4939C15.04 13.029 15.8686 11.678 16.9595 10.5871L17.6743 9.87236C18.2291 9.31759 18.2289 8.41474 17.6739 7.85977ZM9.01458 6.81102L9.21289 6.6127C9.25596 6.56964 9.3031 6.53178 9.35313 6.49866L9.35327 7.75454L9.01458 6.81102Z" fill="black"/>
<path id="Vector_17" d="M3.98489 3.57726C4.02965 3.67316 4.12474 3.72948 4.22399 3.72948C4.26133 3.72948 4.29926 3.7215 4.33533 3.7047C4.46727 3.6431 4.52433 3.48624 4.46277 3.35426L3.50065 1.29263C3.43909 1.16065 3.28219 1.10359 3.15021 1.16519C3.01827 1.22678 2.96121 1.38365 3.02277 1.51562L3.98489 3.57726Z" fill="black"/>
<path id="Vector_18" d="M6.23962 3.22492C6.38524 3.22492 6.5033 3.10686 6.5033 2.96125V0.263672C6.5033 0.118055 6.38524 0 6.23962 0C6.09401 0 5.97595 0.118055 5.97595 0.263672V2.96125C5.97595 3.10686 6.09401 3.22492 6.23962 3.22492Z" fill="black"/>
<path id="Vector_19" d="M8.51882 3.34091C8.5525 3.35522 8.58745 3.36197 8.62183 3.36197C8.72442 3.36197 8.82197 3.30171 8.86462 3.20138L9.64347 1.36882C9.70042 1.23481 9.63795 1.07998 9.50394 1.02302C9.36988 0.966071 9.21509 1.02854 9.15814 1.16256L8.37929 2.99511C8.32233 3.12913 8.38481 3.28396 8.51882 3.34091Z" fill="black"/>
<path id="Vector_20" d="M1.5177 4.19145L2.75471 4.9703C2.79834 4.9978 2.84693 5.01087 2.89495 5.01087C2.98256 5.01087 3.06824 4.96725 3.11833 4.88765C3.19592 4.76443 3.15894 4.60162 3.03568 4.52403L1.79867 3.74518C1.67542 3.66755 1.51264 3.70461 1.43505 3.82783C1.35746 3.95105 1.39445 4.11386 1.5177 4.19145Z" fill="black"/>
</g>
<defs>
<clipPath id="clip0_324_167">
<rect width="18" height="18" fill="white" transform="translate(0.0905151)"/>
</clipPath>
</defs>
</svg>
