<svg width="135" height="201" viewBox="0 0 135 201" fill="none" xmlns="http://www.w3.org/2000/svg">
<circle cx="2.43361" cy="3.08482" r="2.21373" transform="rotate(90 2.43361 3.08482)" fill="#5151FF"/>
<circle cx="34.9013" cy="2.98863" r="2.21373" transform="rotate(90 34.9013 2.98863)" fill="#5151FF"/>
<circle cx="67.3692" cy="2.89342" r="2.21373" transform="rotate(90 67.3692 2.89342)" fill="#5151FF"/>
<circle cx="99.8372" cy="2.79723" r="2.21373" transform="rotate(90 99.8372 2.79723)" fill="#5151FF"/>
<circle cx="132.305" cy="2.70103" r="2.21373" transform="rotate(90 132.305 2.70103)" fill="#5151FF"/>
<circle cx="2.52925" cy="35.5521" r="2.21373" transform="rotate(90 2.52925 35.5521)" fill="#5151FF"/>
<circle cx="34.9973" cy="35.4569" r="2.21373" transform="rotate(90 34.9973 35.4569)" fill="#5151FF"/>
<circle cx="67.4651" cy="35.3607" r="2.21373" transform="rotate(90 67.4651 35.3607)" fill="#5151FF"/>
<circle cx="99.9329" cy="35.2645" r="2.21373" transform="rotate(90 99.9329 35.2645)" fill="#5151FF"/>
<circle cx="132.401" cy="35.1688" r="2.21373" transform="rotate(90 132.401 35.1688)" fill="#5151FF"/>
<circle cx="2.62514" cy="68.0206" r="2.21373" transform="rotate(90 2.62514 68.0206)" fill="#5151FF"/>
<circle cx="35.0932" cy="67.9244" r="2.21373" transform="rotate(90 35.0932 67.9244)" fill="#5151FF"/>
<circle cx="67.5611" cy="67.8287" r="2.21373" transform="rotate(90 67.5611 67.8287)" fill="#5151FF"/>
<circle cx="100.029" cy="67.733" r="2.21373" transform="rotate(90 100.029 67.733)" fill="#5151FF"/>
<circle cx="132.497" cy="67.6368" r="2.21373" transform="rotate(90 132.497 67.6368)" fill="#5151FF"/>
<circle cx="2.72102" cy="100.489" r="2.21373" transform="rotate(90 2.72102 100.489)" fill="#5151FF"/>
<circle cx="35.189" cy="100.392" r="2.21373" transform="rotate(90 35.189 100.392)" fill="#5151FF"/>
<circle cx="67.6568" cy="100.297" r="2.21373" transform="rotate(90 67.6568 100.297)" fill="#5151FF"/>
<circle cx="100.125" cy="100.201" r="2.21373" transform="rotate(90 100.125 100.201)" fill="#5151FF"/>
<circle cx="132.593" cy="100.105" r="2.21373" transform="rotate(90 132.593 100.105)" fill="#5151FF"/>
<circle cx="2.81703" cy="132.956" r="2.21373" transform="rotate(90 2.81703 132.956)" fill="#5151FF"/>
<circle cx="35.2849" cy="132.86" r="2.21373" transform="rotate(90 35.2849 132.86)" fill="#5151FF"/>
<circle cx="67.7527" cy="132.765" r="2.21373" transform="rotate(90 67.7527 132.765)" fill="#5151FF"/>
<circle cx="100.221" cy="132.669" r="2.21373" transform="rotate(90 100.221 132.669)" fill="#5151FF"/>
<circle cx="132.689" cy="132.573" r="2.21373" transform="rotate(90 132.689 132.573)" fill="#5151FF"/>
<circle cx="2.91292" cy="165.424" r="2.21373" transform="rotate(90 2.91292 165.424)" fill="#5151FF"/>
<circle cx="35.3808" cy="165.328" r="2.21373" transform="rotate(90 35.3808 165.328)" fill="#5151FF"/>
<circle cx="67.8486" cy="165.233" r="2.21373" transform="rotate(90 67.8486 165.233)" fill="#5151FF"/>
<circle cx="100.317" cy="165.136" r="2.21373" transform="rotate(90 100.317 165.136)" fill="#5151FF"/>
<circle cx="132.785" cy="165.041" r="2.21373" transform="rotate(90 132.785 165.041)" fill="#5151FF"/>
<circle cx="3.0088" cy="197.892" r="2.21373" transform="rotate(90 3.0088 197.892)" fill="#5151FF"/>
<circle cx="35.4767" cy="197.796" r="2.21373" transform="rotate(90 35.4767 197.796)" fill="#5151FF"/>
</svg>
